<svg width="30" height="30" viewBox="0 0 30 30" fill="none" xmlns="http://www.w3.org/2000/svg">
<path fill-rule="evenodd" clip-rule="evenodd" d="M 4.5 7.5 C 4.5 7.1 4.7 6.7 4.9 6.4 C 5.2 6.2 5.6 6 6 6 H 24 C 24.4 6 24.8 6.2 25.1 6.4 C 25.3 6.7 25.5 7.1 25.5 7.5 C 25.5 7.9 25.3 8.3 25.1 8.6 C 24.8 8.8 24.4 9 24 9 H 6 C 5.6 9 5.2 8.8 4.9 8.6 C 4.7 8.3 4.5 7.9 4.5 7.5 Z M 4.5 15 C 4.5 14.6 4.7 14.2 4.9 13.9 C 5.2 13.7 5.6 13.5 6 13.5 H 24 C 24.4 13.5 24.8 13.7 25.1 13.9 C 25.3 14.2 25.5 14.6 25.5 15 C 25.5 15.4 25.3 15.8 25.1 16.1 C 24.8 16.3 24.4 16.5 24 16.5 H 6 C 5.6 16.5 5.2 16.3 4.9 16.1 C 4.7 15.8 4.5 15.4 4.5 15 Z M 13.5 22.5 C 13.5 22.1 13.7 21.7 13.9 21.4 C 14.2 21.2 14.6 21 15 21 H 24 C 24.4 21 24.8 21.2 25.1 21.4 C 25.3 21.7 25.5 22.1 25.5 22.5 C 25.5 22.9 25.3 23.3 25.1 23.6 C 24.8 23.8 24.4 24 24 24 H 15 C 14.6 24 14.2 23.8 13.9 23.6 C 13.7 23.3 13.5 22.9 13.5 22.5 Z" fill="#7986ac"/>
</svg>
